<?xml version="1.0" encoding="utf-8"?>
<!-- Generator: Adobe Illustrator 27.0.1, SVG Export Plug-In . SVG Version: 6.00 Build 0)  -->
<svg version="1.1" xmlns="http://www.w3.org/2000/svg" xmlns:xlink="http://www.w3.org/1999/xlink" x="0px" y="0px"
	 viewBox="0 0 595.3 345.8" style="enable-background:new 0 0 595.3 345.8;" xml:space="preserve">
<style type="text/css">
	.st0{fill:#383838;}
	.st1{fill:#CD9F2B;}
</style>
<g id="Capa_1">
	<g id="Capa_2">
	</g>
	<g>
		<g>
			<g>
				<g>
					<path class="st0" d="M337.4,159.6c-3.6,0-7.1-0.6-10.3-1.7c-3.3-1.1-6.1-2.7-8.6-4.7c-2.4-2-4.2-4.4-5.3-7
						c-0.6-1.2-0.6-2.3,0-3.3c0.6-1,1.6-1.7,3-1.9c1-0.2,2-0.1,3,0.5c1,0.5,1.7,1.3,2.2,2.4c0.7,1.4,1.8,2.7,3.3,3.9
						c1.6,1.2,3.4,2.1,5.6,2.9c2.2,0.7,4.5,1.1,6.9,1.1c2.7,0,5.2-0.4,7.5-1.3c2.3-0.8,4.1-2.1,5.5-3.7c1.4-1.6,2.1-3.6,2.1-6
						c0-3-1.2-5.7-3.5-8c-2.3-2.4-6.2-3.8-11.6-4.4c-7-0.7-12.5-2.7-16.5-6.2c-4-3.4-6-7.7-6-12.8c0-3.7,1-6.9,3.1-9.5
						c2.1-2.6,4.9-4.6,8.5-5.9c3.6-1.4,7.6-2,12-2c3.4,0,6.5,0.5,9,1.4c2.6,1,4.8,2.3,6.7,4c1.9,1.7,3.6,3.7,5,6
						c0.8,1.2,1.1,2.4,1,3.5c-0.1,1.1-0.7,2-1.7,2.6c-1.1,0.7-2.2,0.8-3.5,0.4c-1.2-0.4-2.2-1.1-2.8-2.2c-0.9-1.6-2-3-3.3-4.1
						c-1.3-1.1-2.8-2-4.6-2.7c-1.8-0.6-3.8-1-6.2-1c-4.2-0.1-7.7,0.7-10.5,2.3c-2.8,1.6-4.2,4.1-4.2,7.4c0,1.7,0.4,3.3,1.3,4.9
						c0.9,1.6,2.5,2.9,4.8,4c2.3,1.1,5.7,1.9,10.1,2.4c6.7,0.7,12,2.7,15.7,6.1c3.8,3.4,5.6,7.9,5.6,13.5c0,3.2-0.7,6-2,8.4
						c-1.3,2.4-3.1,4.4-5.3,6c-2.2,1.6-4.8,2.8-7.6,3.6C343.3,159.2,340.4,159.6,337.4,159.6z"/>
					<path class="st0" d="M419.8,152.5l-23.9-57c-0.7-2-2.1-3-4.1-3c-1.9,0-3.3,1-4.1,3l-23.8,56.8c-0.7,1.5-0.6,3,0.3,4.3
						c0.8,1.4,2.1,2,3.6,2c0.8,0,1.6-0.2,2.3-0.7c0.8-0.5,1.3-1.1,1.7-2l4.9-11.9H407l4.8,11.9c0.3,0.8,0.9,1.5,1.7,2
						c0.8,0.5,1.6,0.7,2.4,0.7c1.6,0,2.9-0.6,3.7-1.9C420.4,155.5,420.5,154.1,419.8,152.5z M379.6,136.9l12.3-30.1l12.1,30.1H379.6
						z"/>
					<path class="st0" d="M430,158.7c-1.2,0-2.3-0.4-3.1-1.3c-0.8-0.8-1.2-1.9-1.2-3.1V97c0-1.3,0.4-2.4,1.2-3.2
						c0.8-0.8,1.8-1.2,3.1-1.2c1.4,0,2.5,0.5,3.4,1.6l36.9,49.1V97c0-1.3,0.4-2.4,1.3-3.2c0.8-0.8,1.9-1.2,3.1-1.2
						c1.3,0,2.3,0.4,3.1,1.2c0.8,0.8,1.2,1.9,1.2,3.2v57.3c0,1.2-0.4,2.3-1.2,3.1c-0.8,0.8-1.8,1.3-3.1,1.3c-0.6,0-1.2-0.1-1.8-0.4
						c-0.6-0.3-1.2-0.6-1.6-1.1l-36.9-49.1v46.2c0,1.2-0.4,2.3-1.2,3.1C432.4,158.3,431.3,158.7,430,158.7z"/>
					<path class="st0" d="M491.1,158.7c-1.2,0-2.3-0.4-3.1-1.3s-1.3-1.9-1.3-3.1V97c0-1.3,0.4-2.4,1.3-3.2c0.8-0.8,1.9-1.2,3.1-1.2
						h15.3c4.9,0,9.3,0.8,13.3,2.4c4,1.6,7.4,3.9,10.4,6.9c2.9,3,5.2,6.5,6.8,10.5c1.6,4,2.4,8.4,2.4,13.3c0,4.9-0.8,9.3-2.4,13.3
						c-1.6,4-3.8,7.5-6.8,10.5c-2.9,3-6.4,5.3-10.4,6.9c-4,1.6-8.4,2.4-13.3,2.4H491.1z M495.5,150.9h10.9c4.7,0,8.9-1.1,12.6-3.3
						c3.6-2.2,6.5-5.2,8.6-9c2.1-3.8,3.1-8.2,3.1-13.1c0-5-1-9.3-3.1-13.1c-2.1-3.8-5-6.7-8.6-8.9c-3.6-2.1-7.8-3.2-12.6-3.2h-10.9
						V150.9z"/>
				</g>
				<g>
					<path class="st0" d="M371.5,212.9c-3-3.5-6.9-5.8-11.8-7c3.4-1.7,6.1-4,8.1-7c2-2.9,3-6.2,3-9.9c0-4.5-1.1-8.5-3.3-12
						c-2.2-3.5-5.2-6.2-9-8.2c-3.8-2-8.3-3-13.3-3h-26.6c-1.6,0-3,0.5-4.1,1.6c-1.1,1.1-1.7,2.5-1.7,4.2v75.4c0,1.6,0.6,3,1.7,4.1
						s2.5,1.7,4.1,1.7h29c5.6,0,10.5-1.1,14.8-3.4c4.3-2.3,7.7-5.4,10.1-9.3c2.4-3.9,3.6-8.5,3.6-13.6
						C376,221,374.5,216.4,371.5,212.9z M324.3,176.6h20.8c4.2,0,7.7,1,10.4,3.1c2.7,2,4.1,5.2,4.1,9.4c0,4.2-1.4,7.4-4.1,9.5
						c-2.7,2.1-6.2,3.1-10.4,3.1h-20.8V176.6z M362.6,235.2c-1.5,2.3-3.5,4-6.1,5.2c-2.6,1.2-5.6,1.8-9,1.8h-23.2v-29.9h23.2
						c3.4,0,6.4,0.5,9,1.6c2.6,1.1,4.6,2.7,6.1,4.7c1.5,2.1,2.2,4.7,2.2,7.9C364.9,230,364.1,232.9,362.6,235.2z"/>
					<path class="st0" d="M427,254c-6.5,0-12.5-1.1-17.9-3.3c-5.4-2.2-10.1-5.3-14-9.2c-3.9-4-6.9-8.7-9.1-14.2
						c-2.2-5.5-3.2-11.5-3.2-18c0-6.5,1.1-12.5,3.2-17.9c2.2-5.4,5.2-10.1,9.1-14.1c3.9-4,8.6-7.1,14-9.2c5.4-2.2,11.4-3.3,17.9-3.3
						c6.5,0,12.5,1.1,17.9,3.3c5.4,2.2,10,5.3,14,9.2c3.9,4,7,8.7,9.1,14.1c2.2,5.4,3.2,11.4,3.2,17.9c0,6.5-1.1,12.5-3.2,18
						c-2.2,5.5-5.2,10.2-9.1,14.2c-3.9,4-8.6,7.1-14,9.2C439.5,252.9,433.6,254,427,254z M427,243.5c4.8,0,9.3-0.9,13.3-2.6
						c4-1.7,7.6-4.2,10.5-7.2c3-3.1,5.3-6.7,6.9-10.9c1.6-4.2,2.4-8.7,2.4-13.5c0-4.8-0.8-9.3-2.4-13.5c-1.6-4.2-3.9-7.8-6.9-10.9
						c-3-3.1-6.5-5.5-10.5-7.2c-4-1.7-8.5-2.6-13.3-2.6c-4.8,0-9.3,0.9-13.3,2.6c-4,1.7-7.5,4.1-10.5,7.2c-2.9,3.1-5.2,6.7-6.9,10.9
						c-1.6,4.2-2.5,8.7-2.5,13.5c0,4.8,0.8,9.3,2.5,13.5c1.6,4.2,3.9,7.8,6.9,10.9c2.9,3.1,6.4,5.5,10.5,7.2
						C417.8,242.7,422.2,243.5,427,243.5z"/>
					<path class="st0" d="M512.6,208.9L538,175c0.9-1.3,1.3-2.7,1.2-4.1c-0.1-1.4-0.6-2.6-1.4-3.6c-0.9-1-2.1-1.4-3.7-1.4
						c-1.7,0-3.1,0.6-4.1,1.7l-25,33.2l-23.9-33.2c-0.8-1.1-2.2-1.7-4.1-1.7c-1.6,0-2.8,0.5-3.7,1.6c-0.9,1-1.5,2.3-1.6,3.7
						c-0.1,1.4,0.2,2.7,1.1,3.9l24.5,34l-25.9,34.6c-0.9,1.2-1.3,2.5-1.3,4c0,1.4,0.4,2.7,1.3,3.8c0.9,1.1,2.2,1.6,3.9,1.6
						c1.6,0,2.9-0.6,4-1.7l25.6-34l24.2,33.6c0.6,0.7,1.2,1.3,1.9,1.6c0.7,0.3,1.5,0.5,2.5,0.5c1.6,0,2.9-0.5,3.8-1.6
						c0.9-1,1.4-2.3,1.5-3.8c0.1-1.5-0.3-2.8-1.2-4L512.6,208.9z"/>
				</g>
			</g>
		</g>
		<g>
			<g>
				<path class="st1" d="M278.6,236.4l-109.3-63.8L64,232.6l-2-1.2c-1.9-1.1-4.3-0.5-5.4,1.4c-1.1,1.9-0.5,4.3,1.4,5.4l109.3,63.8
					c0.6,0.4,1.3,0.5,2,0.5c1.4,0,2.7-0.7,3.4-2c0.7-1.3,0.7-2.8,0-4L278.6,236.4z"/>
				<path class="st0" d="M280.6,165.3c-1.2-0.7-2.7-0.7-4,0l-42,23.9c-1.9,1.1-2.6,3.5-1.5,5.4c1.1,1.9,3.5,2.6,5.4,1.5l36.1-20.6
					v58.6l-101.4,57.7V175l107.3-61.1c1.9-1.1,2.6-3.5,1.5-5.4c-1.1-1.9-3.5-2.6-5.4-1.5l-103.4,58.9v-60.9c0-1.4-0.8-2.7-2-3.4
					c-1.2-0.7-2.7-0.7-4,0L64,160.4v-48.7l107.3-61.1c1.9-1.1,2.6-3.5,1.5-5.4c-1.1-1.9-3.5-2.6-5.4-1.5L58,105.9
					c-1.2,0.7-2,2-2,3.4v57.8v67.7c0,1.4,0.8,2.7,2,3.4c0.6,0.4,1.3,0.5,2,0.5c0.7,0,1.4-0.2,2-0.5l103.4-58.9v119.2
					c0,1.4,0.8,2.7,2,3.4c0.6,0.4,1.3,0.5,2,0.5c0.7,0,1.4-0.2,2-0.5l109.3-62.2c1.2-0.7,2-2,2-3.4v-67.7
					C282.6,167.3,281.8,166,280.6,165.3z M64,228.1v-58.6l101.4-57.7v58.6L64,228.1z"/>
			</g>
			<g>
				<path class="st1" d="M267.5,97.4l3.1-1.7c1.2-0.7,1.5-2.2,0.7-3.3c-20-25.2-49.2-42.9-82.5-47.8c-1.3-0.2-2.5,0.9-2.5,2.2l0,3.5
					c0,1.1,0.8,2,1.9,2.2c30.8,4.7,57.9,21,76.6,44.4C265.3,97.7,266.5,98,267.5,97.4z"/>
				<path class="st1" d="M237.8,114.3l3.1-1.8c1.2-0.7,1.5-2.4,0.6-3.4c-13.6-15.3-31.9-26.2-52.7-30.5c-1.4-0.3-2.7,0.8-2.7,2.2
					l0,3.6c0,1.1,0.7,1.9,1.8,2.2c18.5,3.9,34.9,13.7,47.2,27.3C235.8,114.6,236.9,114.8,237.8,114.3z"/>
				<path class="st1" d="M207.3,131.7l3.2-1.8c1.3-0.8,1.5-2.6,0.4-3.6c-6.3-5.6-13.7-9.9-21.9-12.6c-1.4-0.5-2.9,0.6-2.9,2.1l0,3.7
					c0,1,0.6,1.8,1.5,2.1c6.3,2.2,12.1,5.6,17.2,9.9C205.5,132,206.5,132.1,207.3,131.7z"/>
			</g>
		</g>
	</g>
</g>
<g id="Capa_3">
</g>
</svg>
